<svg xmlns="http://www.w3.org/2000/svg" viewBox="0 0 100 100" width="100" height="100">
  <defs>
    <linearGradient id="fireGradient1" x1="0%" y1="0%" x2="0%" y2="100%">
      <stop offset="0%" style="stop-color:#ff6b2b;stop-opacity:1" />
      <stop offset="50%" style="stop-color:#e30613;stop-opacity:1" />
      <stop offset="100%" style="stop-color:#aa0000;stop-opacity:1" />
    </linearGradient>
    <linearGradient id="fireGradient2" x1="0%" y1="0%" x2="0%" y2="100%">
      <stop offset="0%" style="stop-color:#ffaa00;stop-opacity:1" />
      <stop offset="50%" style="stop-color:#ff6b2b;stop-opacity:1" />
      <stop offset="100%" style="stop-color:#e30613;stop-opacity:1" />
    </linearGradient>
  </defs>
  
  <!-- Main flame -->
  <path d="M50 10 C35 25, 20 45, 20 60 C20 78, 33 92, 50 92 C67 92, 80 78, 80 60 C80 45, 65 25, 50 10 Z" 
        fill="url(#fireGradient1)" opacity="0.9"/>
  
  <!-- Inner flame (orange-yellow) -->
  <path d="M50 25 C40 35, 35 48, 35 58 C35 70, 41 80, 50 80 C59 80, 65 70, 65 58 C65 48, 60 35, 50 25 Z" 
        fill="url(#fireGradient2)" opacity="0.8"/>
  
  <!-- Flame tip highlight -->
  <ellipse cx="50" cy="35" rx="8" ry="12" fill="#ff7300ff" opacity="0.6"/>
  
  <!-- Small flame detail left -->
  <path d="M35 50 C30 55, 28 60, 30 65 C32 68, 35 65, 37 60 C38 55, 37 52, 35 50 Z" 
        fill="#ff1100ff" opacity="0.7"/>
  
  <!-- Small flame detail right -->
  <path d="M65 50 C70 55, 72 60, 70 65 C68 68, 65 65, 63 60 C62 55, 63 52, 65 50 Z" 
        fill="#ff3c00ff" opacity="0.7"/>
</svg>
